<svg width="46" height="46" viewBox="0 0 46 46" fill="none" xmlns="http://www.w3.org/2000/svg">
<g filter="url(#filter0_d_2952_21)">
<path d="M20.8419 0.830292C12.0438 0.830292 4.88684 7.98728 4.88684 16.7854C4.88684 25.5835 12.0438 32.7404 20.8419 32.7404C23.6227 32.7404 26.2666 32.0111 28.5459 30.7347C28.6668 30.9427 28.804 31.1409 28.9562 31.3273L33.5148 36.0226C33.9357 36.4963 34.449 36.8789 35.0232 37.147C35.5973 37.4151 36.2202 37.563 36.8536 37.5816C37.487 37.6003 38.1175 37.4892 38.7064 37.2554C39.2953 37.0215 39.8302 36.6698 40.2783 36.2217C40.7263 35.7737 41.0781 35.2388 41.3119 34.6498C41.5458 34.0609 41.6568 33.4304 41.6382 32.797C41.6195 32.1637 41.4716 31.5408 41.2035 30.9666C40.9354 30.3925 40.5528 29.8792 40.0792 29.4583L35.3838 24.8997C35.1974 24.7475 34.9993 24.6103 34.7912 24.4894C36.022 22.2101 36.797 19.5661 36.797 16.7854C36.797 7.98728 29.64 0.830292 20.8419 0.830292ZM20.8419 5.38889C27.1784 5.38889 32.2384 10.4489 32.2384 16.7854C32.2384 19.4749 31.3267 21.9822 29.8223 23.8968C29.7768 23.9424 29.7312 23.9879 29.6856 24.0335C29.5929 24.076 29.5017 24.1217 29.4121 24.1703C28.955 24.52 28.5683 24.9531 28.2724 25.4467C26.2666 27.1334 23.6682 28.1363 20.8419 28.1363C14.5055 28.1363 9.44543 23.0762 9.44543 16.7398C9.44543 10.4033 14.5055 5.3433 20.8419 5.3433V5.38889ZM14.004 14.5061V19.0647H27.6798V14.5061H14.004Z" fill="white"/>
</g>
<defs>
<filter id="filter0_d_2952_21" x="0.886841" y="0.830292" width="44.7534" height="44.7533" filterUnits="userSpaceOnUse" color-interpolation-filters="sRGB">
<feFlood flood-opacity="0" result="BackgroundImageFix"/>
<feColorMatrix in="SourceAlpha" type="matrix" values="0 0 0 0 0 0 0 0 0 0 0 0 0 0 0 0 0 0 127 0" result="hardAlpha"/>
<feOffset dy="4"/>
<feGaussianBlur stdDeviation="2"/>
<feComposite in2="hardAlpha" operator="out"/>
<feColorMatrix type="matrix" values="0 0 0 0 0 0 0 0 0 0 0 0 0 0 0 0 0 0 0.25 0"/>
<feBlend mode="normal" in2="BackgroundImageFix" result="effect1_dropShadow_2952_21"/>
<feBlend mode="normal" in="SourceGraphic" in2="effect1_dropShadow_2952_21" result="shape"/>
</filter>
</defs>
</svg>
