<svg width="53" height="53" viewBox="0 0 53 53" fill="none" xmlns="http://www.w3.org/2000/svg">
<g filter="url(#filter0_d_2952_24)">
<path d="M23.3566 0.711365C12.7953 0.711365 4.20404 9.30266 4.20404 19.8639C4.20404 30.4252 12.7953 39.0165 23.3566 39.0165C26.6946 39.0165 29.8685 38.141 32.6046 36.6088C32.7497 36.8585 32.9144 37.0964 33.0971 37.3201L38.5692 42.9565C39.0745 43.525 39.6907 43.9843 40.3799 44.3061C41.0691 44.6279 41.8168 44.8055 42.5771 44.8279C43.3374 44.8503 44.0943 44.717 44.8012 44.4363C45.5082 44.1556 46.1503 43.7333 46.6881 43.1955C47.226 42.6576 47.6482 42.0155 47.929 41.3086C48.2097 40.6016 48.3429 39.8448 48.3205 39.0844C48.2982 38.3241 48.1206 37.5764 47.7988 36.8872C47.477 36.198 47.0177 35.5818 46.4492 35.0766L40.8128 29.6044C40.5891 29.4217 40.3512 29.257 40.1014 29.1119C41.5789 26.3758 42.5092 23.202 42.5092 19.8639C42.5092 9.30266 33.9179 0.711365 23.3566 0.711365ZM23.3566 6.18353C30.9629 6.18353 37.037 12.2576 37.037 19.8639C37.037 23.0925 35.9426 26.1022 34.1368 28.4005C34.0821 28.4552 34.0273 28.51 33.9726 28.5647C33.8614 28.6157 33.7519 28.6705 33.6443 28.7288C33.0956 29.1487 32.6315 29.6685 32.2762 30.2611C29.8685 32.2858 26.7494 33.4896 23.3566 33.4896C15.7503 33.4896 9.67621 27.4155 9.67621 19.8092C9.67621 12.2029 15.7503 6.12881 23.3566 6.12881V6.18353ZM20.6205 11.6557V17.1279H15.1484V22.6H20.6205V28.0722H26.0927V22.6H31.5649V17.1279H26.0927V11.6557H20.6205Z" fill="white"/>
</g>
<defs>
<filter id="filter0_d_2952_24" x="0.204041" y="0.711365" width="52.1189" height="52.1189" filterUnits="userSpaceOnUse" color-interpolation-filters="sRGB">
<feFlood flood-opacity="0" result="BackgroundImageFix"/>
<feColorMatrix in="SourceAlpha" type="matrix" values="0 0 0 0 0 0 0 0 0 0 0 0 0 0 0 0 0 0 127 0" result="hardAlpha"/>
<feOffset dy="4"/>
<feGaussianBlur stdDeviation="2"/>
<feComposite in2="hardAlpha" operator="out"/>
<feColorMatrix type="matrix" values="0 0 0 0 0 0 0 0 0 0 0 0 0 0 0 0 0 0 0.25 0"/>
<feBlend mode="normal" in2="BackgroundImageFix" result="effect1_dropShadow_2952_24"/>
<feBlend mode="normal" in="SourceGraphic" in2="effect1_dropShadow_2952_24" result="shape"/>
</filter>
</defs>
</svg>
